<?xml version="1.0" encoding="UTF-8"?>
<mxfile host="app.diagrams.net" agent="Mozilla/5.0 (Windows NT 10.0; Win64; x64) AppleWebKit/537.36 (KHTML, like Gecko) Chrome/141.0.0.0 Safari/537.36" version="28.2.3">
  <diagram name="Page-1" id="ZZIZno4oQ9c6FyRSumAO">
    <mxGraphModel dx="2566" dy="624" grid="1" gridSize="10" guides="1" tooltips="1" connect="1" arrows="1" fold="1" page="1" pageScale="1" pageWidth="1390" pageHeight="980" math="0" shadow="0">
      <root>
        <mxCell id="0" />
        <mxCell id="1" parent="0" />
        <mxCell id="8jgNyd-5vbainrCCYrxz-65" style="edgeStyle=orthogonalEdgeStyle;rounded=0;orthogonalLoop=1;jettySize=auto;html=1;exitX=0.5;exitY=1;exitDx=0;exitDy=0;entryX=0.5;entryY=0;entryDx=0;entryDy=0;" parent="1" source="8jgNyd-5vbainrCCYrxz-2" target="8jgNyd-5vbainrCCYrxz-64" edge="1">
          <mxGeometry relative="1" as="geometry" />
        </mxCell>
        <mxCell id="8jgNyd-5vbainrCCYrxz-2" value="USER" style="rounded=0;whiteSpace=wrap;html=1;" parent="1" vertex="1">
          <mxGeometry x="-670" y="120" width="100" height="40" as="geometry" />
        </mxCell>
        <mxCell id="8jgNyd-5vbainrCCYrxz-3" value="USER_ID" style="ellipse;whiteSpace=wrap;html=1;" parent="1" vertex="1">
          <mxGeometry x="-710" y="30" width="80" height="50" as="geometry" />
        </mxCell>
        <mxCell id="8jgNyd-5vbainrCCYrxz-4" value="Name" style="ellipse;whiteSpace=wrap;html=1;" parent="1" vertex="1">
          <mxGeometry x="-600" y="30" width="80" height="50" as="geometry" />
        </mxCell>
        <mxCell id="8jgNyd-5vbainrCCYrxz-7" value="Join date" style="ellipse;whiteSpace=wrap;html=1;" parent="1" vertex="1">
          <mxGeometry x="-790" y="80" width="80" height="50" as="geometry" />
        </mxCell>
        <mxCell id="8jgNyd-5vbainrCCYrxz-8" value="Password" style="ellipse;whiteSpace=wrap;html=1;" parent="1" vertex="1">
          <mxGeometry x="-510" y="70" width="80" height="50" as="geometry" />
        </mxCell>
        <mxCell id="8jgNyd-5vbainrCCYrxz-9" value="" style="endArrow=none;html=1;rounded=0;" parent="1" edge="1">
          <mxGeometry width="50" height="50" relative="1" as="geometry">
            <mxPoint x="-600" y="120" as="sourcePoint" />
            <mxPoint x="-560" y="80" as="targetPoint" />
            <Array as="points">
              <mxPoint x="-580" y="100" />
              <mxPoint x="-570" y="90" />
            </Array>
          </mxGeometry>
        </mxCell>
        <mxCell id="8jgNyd-5vbainrCCYrxz-11" value="" style="endArrow=none;html=1;rounded=0;" parent="1" edge="1">
          <mxGeometry width="50" height="50" relative="1" as="geometry">
            <mxPoint x="-640" y="120" as="sourcePoint" />
            <mxPoint x="-660" y="80" as="targetPoint" />
          </mxGeometry>
        </mxCell>
        <mxCell id="8jgNyd-5vbainrCCYrxz-12" value="" style="endArrow=none;html=1;rounded=0;entryX=0.125;entryY=0.797;entryDx=0;entryDy=0;entryPerimeter=0;" parent="1" target="8jgNyd-5vbainrCCYrxz-8" edge="1">
          <mxGeometry width="50" height="50" relative="1" as="geometry">
            <mxPoint x="-570" y="150" as="sourcePoint" />
            <mxPoint x="-520" y="100" as="targetPoint" />
          </mxGeometry>
        </mxCell>
        <mxCell id="8jgNyd-5vbainrCCYrxz-13" value="" style="endArrow=none;html=1;rounded=0;entryX=0.95;entryY=0.757;entryDx=0;entryDy=0;entryPerimeter=0;exitX=0;exitY=0.75;exitDx=0;exitDy=0;" parent="1" source="8jgNyd-5vbainrCCYrxz-2" target="8jgNyd-5vbainrCCYrxz-7" edge="1">
          <mxGeometry width="50" height="50" relative="1" as="geometry">
            <mxPoint x="-740" y="180" as="sourcePoint" />
            <mxPoint x="-690" y="130" as="targetPoint" />
          </mxGeometry>
        </mxCell>
        <mxCell id="8jgNyd-5vbainrCCYrxz-84" style="edgeStyle=orthogonalEdgeStyle;rounded=0;orthogonalLoop=1;jettySize=auto;html=1;exitX=0.5;exitY=1;exitDx=0;exitDy=0;" parent="1" source="8jgNyd-5vbainrCCYrxz-14" edge="1">
          <mxGeometry relative="1" as="geometry">
            <mxPoint x="-239.705882352941" y="160.17647058823536" as="targetPoint" />
          </mxGeometry>
        </mxCell>
        <mxCell id="8jgNyd-5vbainrCCYrxz-14" value="MOVIE" style="rounded=0;whiteSpace=wrap;html=1;" parent="1" vertex="1">
          <mxGeometry x="-300" y="120" width="120" height="40" as="geometry" />
        </mxCell>
        <mxCell id="8jgNyd-5vbainrCCYrxz-15" value="Movie_id" style="ellipse;whiteSpace=wrap;html=1;" parent="1" vertex="1">
          <mxGeometry x="-330" y="30" width="80" height="50" as="geometry" />
        </mxCell>
        <mxCell id="8jgNyd-5vbainrCCYrxz-16" value="Title" style="ellipse;whiteSpace=wrap;html=1;" parent="1" vertex="1">
          <mxGeometry x="-410" y="60" width="80" height="50" as="geometry" />
        </mxCell>
        <mxCell id="8jgNyd-5vbainrCCYrxz-17" value="Release_year" style="ellipse;whiteSpace=wrap;html=1;" parent="1" vertex="1">
          <mxGeometry x="-150" y="50" width="80" height="50" as="geometry" />
        </mxCell>
        <mxCell id="8jgNyd-5vbainrCCYrxz-18" value="Duration" style="ellipse;whiteSpace=wrap;html=1;" parent="1" vertex="1">
          <mxGeometry x="-100" y="105" width="80" height="50" as="geometry" />
        </mxCell>
        <mxCell id="8jgNyd-5vbainrCCYrxz-19" value="Movie_name" style="ellipse;whiteSpace=wrap;html=1;" parent="1" vertex="1">
          <mxGeometry x="-240" y="25" width="80" height="50" as="geometry" />
        </mxCell>
        <mxCell id="8jgNyd-5vbainrCCYrxz-20" value="" style="endArrow=none;html=1;rounded=0;exitX=0.686;exitY=-0.013;exitDx=0;exitDy=0;exitPerimeter=0;entryX=0.5;entryY=1;entryDx=0;entryDy=0;" parent="1" source="8jgNyd-5vbainrCCYrxz-14" target="8jgNyd-5vbainrCCYrxz-19" edge="1">
          <mxGeometry width="50" height="50" relative="1" as="geometry">
            <mxPoint x="-230" y="130" as="sourcePoint" />
            <mxPoint x="-180" y="80" as="targetPoint" />
          </mxGeometry>
        </mxCell>
        <mxCell id="8jgNyd-5vbainrCCYrxz-21" style="edgeStyle=orthogonalEdgeStyle;rounded=0;orthogonalLoop=1;jettySize=auto;html=1;exitX=0.5;exitY=1;exitDx=0;exitDy=0;" parent="1" source="8jgNyd-5vbainrCCYrxz-18" target="8jgNyd-5vbainrCCYrxz-18" edge="1">
          <mxGeometry relative="1" as="geometry" />
        </mxCell>
        <mxCell id="8jgNyd-5vbainrCCYrxz-23" value="" style="endArrow=none;html=1;rounded=0;entryX=0.5;entryY=1;entryDx=0;entryDy=0;exitX=0.25;exitY=0;exitDx=0;exitDy=0;" parent="1" source="8jgNyd-5vbainrCCYrxz-14" target="8jgNyd-5vbainrCCYrxz-15" edge="1">
          <mxGeometry width="50" height="50" relative="1" as="geometry">
            <mxPoint x="-230" y="110" as="sourcePoint" />
            <mxPoint x="-250" y="70" as="targetPoint" />
            <Array as="points" />
          </mxGeometry>
        </mxCell>
        <mxCell id="8jgNyd-5vbainrCCYrxz-24" value="" style="endArrow=none;html=1;rounded=0;entryX=0.288;entryY=0.961;entryDx=0;entryDy=0;entryPerimeter=0;exitX=1;exitY=0;exitDx=0;exitDy=0;" parent="1" source="8jgNyd-5vbainrCCYrxz-14" target="8jgNyd-5vbainrCCYrxz-17" edge="1">
          <mxGeometry width="50" height="50" relative="1" as="geometry">
            <mxPoint x="-180" y="150" as="sourcePoint" />
            <mxPoint x="-130" y="100" as="targetPoint" />
          </mxGeometry>
        </mxCell>
        <mxCell id="8jgNyd-5vbainrCCYrxz-25" value="" style="endArrow=none;html=1;rounded=0;exitX=0;exitY=0.5;exitDx=0;exitDy=0;entryX=1;entryY=1;entryDx=0;entryDy=0;" parent="1" source="8jgNyd-5vbainrCCYrxz-14" target="8jgNyd-5vbainrCCYrxz-16" edge="1">
          <mxGeometry width="50" height="50" relative="1" as="geometry">
            <mxPoint x="-290" y="140" as="sourcePoint" />
            <mxPoint x="-350" y="100" as="targetPoint" />
          </mxGeometry>
        </mxCell>
        <mxCell id="8jgNyd-5vbainrCCYrxz-26" value="" style="endArrow=none;html=1;rounded=0;entryX=0;entryY=0.5;entryDx=0;entryDy=0;" parent="1" target="8jgNyd-5vbainrCCYrxz-18" edge="1">
          <mxGeometry width="50" height="50" relative="1" as="geometry">
            <mxPoint x="-180" y="150" as="sourcePoint" />
            <mxPoint x="-110" y="120" as="targetPoint" />
          </mxGeometry>
        </mxCell>
        <mxCell id="8jgNyd-5vbainrCCYrxz-82" style="edgeStyle=orthogonalEdgeStyle;rounded=0;orthogonalLoop=1;jettySize=auto;html=1;exitX=0.5;exitY=1;exitDx=0;exitDy=0;entryX=0.5;entryY=1;entryDx=0;entryDy=0;" parent="1" source="8jgNyd-5vbainrCCYrxz-29" target="8jgNyd-5vbainrCCYrxz-72" edge="1">
          <mxGeometry relative="1" as="geometry" />
        </mxCell>
        <mxCell id="8jgNyd-5vbainrCCYrxz-29" value="REVIEW" style="rounded=0;whiteSpace=wrap;html=1;" parent="1" vertex="1">
          <mxGeometry x="-680" y="560" width="120" height="40" as="geometry" />
        </mxCell>
        <mxCell id="8jgNyd-5vbainrCCYrxz-30" value="Review_id" style="ellipse;whiteSpace=wrap;html=1;" parent="1" vertex="1">
          <mxGeometry x="-710" y="440" width="80" height="50" as="geometry" />
        </mxCell>
        <mxCell id="8jgNyd-5vbainrCCYrxz-31" value="User_id" style="ellipse;whiteSpace=wrap;html=1;" parent="1" vertex="1">
          <mxGeometry x="-600" y="440" width="80" height="50" as="geometry" />
        </mxCell>
        <mxCell id="8jgNyd-5vbainrCCYrxz-32" value="Review_text" style="ellipse;whiteSpace=wrap;html=1;" parent="1" vertex="1">
          <mxGeometry x="-820" y="555" width="80" height="50" as="geometry" />
        </mxCell>
        <mxCell id="8jgNyd-5vbainrCCYrxz-33" value="Rating" style="ellipse;whiteSpace=wrap;html=1;" parent="1" vertex="1">
          <mxGeometry x="-790" y="480" width="80" height="50" as="geometry" />
        </mxCell>
        <mxCell id="8jgNyd-5vbainrCCYrxz-34" value="Review_date" style="ellipse;whiteSpace=wrap;html=1;" parent="1" vertex="1">
          <mxGeometry x="-490" y="555" width="80" height="50" as="geometry" />
        </mxCell>
        <mxCell id="8jgNyd-5vbainrCCYrxz-35" value="Movie_id" style="ellipse;whiteSpace=wrap;html=1;" parent="1" vertex="1">
          <mxGeometry x="-530" y="490" width="80" height="50" as="geometry" />
        </mxCell>
        <mxCell id="8jgNyd-5vbainrCCYrxz-36" value="" style="endArrow=none;html=1;rounded=0;entryX=0;entryY=1;entryDx=0;entryDy=0;exitX=0.599;exitY=0.01;exitDx=0;exitDy=0;exitPerimeter=0;" parent="1" source="8jgNyd-5vbainrCCYrxz-29" target="8jgNyd-5vbainrCCYrxz-31" edge="1">
          <mxGeometry width="50" height="50" relative="1" as="geometry">
            <mxPoint x="-620" y="560" as="sourcePoint" />
            <mxPoint x="-580" y="490" as="targetPoint" />
            <Array as="points">
              <mxPoint x="-600" y="530" />
            </Array>
          </mxGeometry>
        </mxCell>
        <mxCell id="8jgNyd-5vbainrCCYrxz-37" value="" style="endArrow=none;html=1;rounded=0;entryX=0.032;entryY=0.698;entryDx=0;entryDy=0;entryPerimeter=0;" parent="1" target="8jgNyd-5vbainrCCYrxz-35" edge="1">
          <mxGeometry width="50" height="50" relative="1" as="geometry">
            <mxPoint x="-560" y="560" as="sourcePoint" />
            <mxPoint x="-510" y="510" as="targetPoint" />
          </mxGeometry>
        </mxCell>
        <mxCell id="8jgNyd-5vbainrCCYrxz-38" value="" style="endArrow=none;html=1;rounded=0;" parent="1" edge="1">
          <mxGeometry width="50" height="50" relative="1" as="geometry">
            <mxPoint x="-640" y="560" as="sourcePoint" />
            <mxPoint x="-660" y="490" as="targetPoint" />
          </mxGeometry>
        </mxCell>
        <mxCell id="8jgNyd-5vbainrCCYrxz-39" value="" style="endArrow=none;html=1;rounded=0;entryX=0.988;entryY=0.6;entryDx=0;entryDy=0;entryPerimeter=0;" parent="1" target="8jgNyd-5vbainrCCYrxz-33" edge="1">
          <mxGeometry width="50" height="50" relative="1" as="geometry">
            <mxPoint x="-660" y="560" as="sourcePoint" />
            <mxPoint x="-710" y="520" as="targetPoint" />
            <Array as="points" />
          </mxGeometry>
        </mxCell>
        <mxCell id="8jgNyd-5vbainrCCYrxz-40" value="" style="endArrow=none;html=1;rounded=0;entryX=0;entryY=0.5;entryDx=0;entryDy=0;exitX=1;exitY=0.5;exitDx=0;exitDy=0;" parent="1" source="8jgNyd-5vbainrCCYrxz-29" target="8jgNyd-5vbainrCCYrxz-34" edge="1">
          <mxGeometry width="50" height="50" relative="1" as="geometry">
            <mxPoint x="-550" y="590" as="sourcePoint" />
            <mxPoint x="-510" y="570" as="targetPoint" />
          </mxGeometry>
        </mxCell>
        <mxCell id="8jgNyd-5vbainrCCYrxz-43" value="" style="endArrow=none;html=1;rounded=0;exitX=1;exitY=0.5;exitDx=0;exitDy=0;" parent="1" source="8jgNyd-5vbainrCCYrxz-32" edge="1">
          <mxGeometry width="50" height="50" relative="1" as="geometry">
            <mxPoint x="-730" y="630" as="sourcePoint" />
            <mxPoint x="-680" y="580" as="targetPoint" />
          </mxGeometry>
        </mxCell>
        <mxCell id="8jgNyd-5vbainrCCYrxz-91" style="edgeStyle=orthogonalEdgeStyle;rounded=0;orthogonalLoop=1;jettySize=auto;html=1;exitX=0;exitY=0.5;exitDx=0;exitDy=0;entryX=0.5;entryY=1;entryDx=0;entryDy=0;" parent="1" source="8jgNyd-5vbainrCCYrxz-44" target="8jgNyd-5vbainrCCYrxz-90" edge="1">
          <mxGeometry relative="1" as="geometry" />
        </mxCell>
        <mxCell id="8jgNyd-5vbainrCCYrxz-44" value="DIRECTOR" style="rounded=0;whiteSpace=wrap;html=1;" parent="1" vertex="1">
          <mxGeometry x="110" y="565" width="120" height="40" as="geometry" />
        </mxCell>
        <mxCell id="8jgNyd-5vbainrCCYrxz-45" value="Nationality" style="ellipse;whiteSpace=wrap;html=1;" parent="1" vertex="1">
          <mxGeometry x="30" y="455" width="80" height="50" as="geometry" />
        </mxCell>
        <mxCell id="8jgNyd-5vbainrCCYrxz-46" value="Director_name" style="ellipse;whiteSpace=wrap;html=1;" parent="1" vertex="1">
          <mxGeometry x="230" y="455" width="100" height="50" as="geometry" />
        </mxCell>
        <mxCell id="8jgNyd-5vbainrCCYrxz-47" value="Director_id" style="ellipse;whiteSpace=wrap;html=1;" parent="1" vertex="1">
          <mxGeometry x="130" y="435" width="80" height="50" as="geometry" />
        </mxCell>
        <mxCell id="8jgNyd-5vbainrCCYrxz-50" value="" style="endArrow=none;html=1;rounded=0;entryX=1;entryY=1;entryDx=0;entryDy=0;exitX=0.25;exitY=0;exitDx=0;exitDy=0;" parent="1" source="8jgNyd-5vbainrCCYrxz-44" target="8jgNyd-5vbainrCCYrxz-45" edge="1">
          <mxGeometry width="50" height="50" relative="1" as="geometry">
            <mxPoint x="135" y="560" as="sourcePoint" />
            <mxPoint x="110" y="500" as="targetPoint" />
          </mxGeometry>
        </mxCell>
        <mxCell id="8jgNyd-5vbainrCCYrxz-52" value="" style="endArrow=none;html=1;rounded=0;exitX=0.75;exitY=0;exitDx=0;exitDy=0;entryX=0.357;entryY=0.989;entryDx=0;entryDy=0;entryPerimeter=0;" parent="1" source="8jgNyd-5vbainrCCYrxz-44" target="8jgNyd-5vbainrCCYrxz-46" edge="1">
          <mxGeometry width="50" height="50" relative="1" as="geometry">
            <mxPoint x="210" y="555" as="sourcePoint" />
            <mxPoint x="260" y="505" as="targetPoint" />
          </mxGeometry>
        </mxCell>
        <mxCell id="8jgNyd-5vbainrCCYrxz-53" value="" style="endArrow=none;html=1;rounded=0;entryX=0.5;entryY=1;entryDx=0;entryDy=0;exitX=0.5;exitY=0;exitDx=0;exitDy=0;" parent="1" source="8jgNyd-5vbainrCCYrxz-44" edge="1">
          <mxGeometry width="50" height="50" relative="1" as="geometry">
            <mxPoint x="170" y="555" as="sourcePoint" />
            <mxPoint x="170" y="485" as="targetPoint" />
          </mxGeometry>
        </mxCell>
        <mxCell id="8jgNyd-5vbainrCCYrxz-77" style="edgeStyle=orthogonalEdgeStyle;rounded=0;orthogonalLoop=1;jettySize=auto;html=1;exitX=0.5;exitY=1;exitDx=0;exitDy=0;entryX=1;entryY=0.5;entryDx=0;entryDy=0;" parent="1" source="8jgNyd-5vbainrCCYrxz-54" target="8jgNyd-5vbainrCCYrxz-76" edge="1">
          <mxGeometry relative="1" as="geometry" />
        </mxCell>
        <mxCell id="8jgNyd-5vbainrCCYrxz-54" value="ACTOR" style="rounded=0;whiteSpace=wrap;html=1;" parent="1" vertex="1">
          <mxGeometry x="100" y="170" width="100" height="40" as="geometry" />
        </mxCell>
        <mxCell id="8jgNyd-5vbainrCCYrxz-57" value="Actor_id" style="ellipse;whiteSpace=wrap;html=1;" parent="1" vertex="1">
          <mxGeometry x="110" y="50" width="80" height="50" as="geometry" />
        </mxCell>
        <mxCell id="8jgNyd-5vbainrCCYrxz-58" value="Actor_name" style="ellipse;whiteSpace=wrap;html=1;" parent="1" vertex="1">
          <mxGeometry x="20" y="65" width="80" height="50" as="geometry" />
        </mxCell>
        <mxCell id="8jgNyd-5vbainrCCYrxz-59" value="Birth_year" style="ellipse;whiteSpace=wrap;html=1;" parent="1" vertex="1">
          <mxGeometry x="200" y="70" width="80" height="50" as="geometry" />
        </mxCell>
        <mxCell id="8jgNyd-5vbainrCCYrxz-61" value="" style="endArrow=none;html=1;rounded=0;entryX=0;entryY=1;entryDx=0;entryDy=0;" parent="1" target="8jgNyd-5vbainrCCYrxz-59" edge="1">
          <mxGeometry width="50" height="50" relative="1" as="geometry">
            <mxPoint x="180" y="170" as="sourcePoint" />
            <mxPoint x="230" y="120" as="targetPoint" />
          </mxGeometry>
        </mxCell>
        <mxCell id="8jgNyd-5vbainrCCYrxz-62" value="" style="endArrow=none;html=1;rounded=0;exitX=0.5;exitY=0;exitDx=0;exitDy=0;entryX=0.611;entryY=0.966;entryDx=0;entryDy=0;entryPerimeter=0;" parent="1" source="8jgNyd-5vbainrCCYrxz-54" target="8jgNyd-5vbainrCCYrxz-57" edge="1">
          <mxGeometry width="50" height="50" relative="1" as="geometry">
            <mxPoint x="150" y="170" as="sourcePoint" />
            <mxPoint x="150" y="100" as="targetPoint" />
          </mxGeometry>
        </mxCell>
        <mxCell id="8jgNyd-5vbainrCCYrxz-63" value="" style="endArrow=none;html=1;rounded=0;exitX=0.25;exitY=0;exitDx=0;exitDy=0;entryX=1;entryY=1;entryDx=0;entryDy=0;" parent="1" source="8jgNyd-5vbainrCCYrxz-54" target="8jgNyd-5vbainrCCYrxz-58" edge="1">
          <mxGeometry width="50" height="50" relative="1" as="geometry">
            <mxPoint x="120" y="170" as="sourcePoint" />
            <mxPoint x="100" y="100" as="targetPoint" />
          </mxGeometry>
        </mxCell>
        <mxCell id="8jgNyd-5vbainrCCYrxz-66" style="edgeStyle=orthogonalEdgeStyle;rounded=0;orthogonalLoop=1;jettySize=auto;html=1;exitX=0.5;exitY=1;exitDx=0;exitDy=0;" parent="1" source="8jgNyd-5vbainrCCYrxz-64" edge="1">
          <mxGeometry relative="1" as="geometry">
            <mxPoint x="-620" y="560" as="targetPoint" />
          </mxGeometry>
        </mxCell>
        <mxCell id="8jgNyd-5vbainrCCYrxz-64" value="POSTS" style="rhombus;whiteSpace=wrap;html=1;" parent="1" vertex="1">
          <mxGeometry x="-675" y="220" width="110" height="90" as="geometry" />
        </mxCell>
        <mxCell id="8jgNyd-5vbainrCCYrxz-85" style="edgeStyle=orthogonalEdgeStyle;rounded=0;orthogonalLoop=1;jettySize=auto;html=1;exitX=0.5;exitY=0;exitDx=0;exitDy=0;entryX=0.25;entryY=1;entryDx=0;entryDy=0;" parent="1" source="8jgNyd-5vbainrCCYrxz-72" target="8jgNyd-5vbainrCCYrxz-14" edge="1">
          <mxGeometry relative="1" as="geometry" />
        </mxCell>
        <mxCell id="8jgNyd-5vbainrCCYrxz-72" value="RECEIVES" style="rhombus;whiteSpace=wrap;html=1;" parent="1" vertex="1">
          <mxGeometry x="-450" y="320" width="110" height="90" as="geometry" />
        </mxCell>
        <mxCell id="8jgNyd-5vbainrCCYrxz-76" value="FEATURES" style="rhombus;whiteSpace=wrap;html=1;" parent="1" vertex="1">
          <mxGeometry x="-140" y="350" width="110" height="90" as="geometry" />
        </mxCell>
        <mxCell id="8jgNyd-5vbainrCCYrxz-86" style="edgeStyle=orthogonalEdgeStyle;rounded=0;orthogonalLoop=1;jettySize=auto;html=1;exitX=0;exitY=0.5;exitDx=0;exitDy=0;" parent="1" source="8jgNyd-5vbainrCCYrxz-76" edge="1">
          <mxGeometry relative="1" as="geometry">
            <mxPoint x="-221" y="160" as="targetPoint" />
          </mxGeometry>
        </mxCell>
        <mxCell id="8jgNyd-5vbainrCCYrxz-90" value="RECEIVES" style="rhombus;whiteSpace=wrap;html=1;" parent="1" vertex="1">
          <mxGeometry x="-340" y="470" width="110" height="90" as="geometry" />
        </mxCell>
        <mxCell id="8jgNyd-5vbainrCCYrxz-93" style="edgeStyle=orthogonalEdgeStyle;rounded=0;orthogonalLoop=1;jettySize=auto;html=1;exitX=0.5;exitY=0;exitDx=0;exitDy=0;" parent="1" source="8jgNyd-5vbainrCCYrxz-90" edge="1">
          <mxGeometry relative="1" as="geometry">
            <mxPoint x="-247" y="160" as="targetPoint" />
          </mxGeometry>
        </mxCell>
        <mxCell id="8jgNyd-5vbainrCCYrxz-94" value="Director_id" style="ellipse;whiteSpace=wrap;html=1;" parent="1" vertex="1">
          <mxGeometry x="-435" y="150" width="80" height="50" as="geometry" />
        </mxCell>
        <mxCell id="8jgNyd-5vbainrCCYrxz-95" value="Actor_id" style="ellipse;whiteSpace=wrap;html=1;" parent="1" vertex="1">
          <mxGeometry x="-140" y="170" width="80" height="50" as="geometry" />
        </mxCell>
        <mxCell id="8jgNyd-5vbainrCCYrxz-96" value="" style="endArrow=none;html=1;rounded=0;entryX=0.036;entryY=0.329;entryDx=0;entryDy=0;entryPerimeter=0;" parent="1" target="8jgNyd-5vbainrCCYrxz-95" edge="1">
          <mxGeometry width="50" height="50" relative="1" as="geometry">
            <mxPoint x="-180" y="160" as="sourcePoint" />
            <mxPoint x="-120" y="170" as="targetPoint" />
          </mxGeometry>
        </mxCell>
        <mxCell id="8jgNyd-5vbainrCCYrxz-97" value="" style="endArrow=none;html=1;rounded=0;exitX=1;exitY=0.5;exitDx=0;exitDy=0;" parent="1" source="8jgNyd-5vbainrCCYrxz-94" edge="1">
          <mxGeometry width="50" height="50" relative="1" as="geometry">
            <mxPoint x="-350" y="210" as="sourcePoint" />
            <mxPoint x="-300" y="160" as="targetPoint" />
          </mxGeometry>
        </mxCell>
      </root>
    </mxGraphModel>
  </diagram>
</mxfile>
